<svg xmlns="http://www.w3.org/2000/svg" width="1024" height="1024" viewBox="0 0 1024 1024">
  <rect x="96" y="96" width="832" height="832" rx="200" ry="200" fill="#0071e3"/>
  <g fill="#ffffff" transform="translate(83.2,124.4) scale(0.763)">
    <path d="M 372 226
             C 232 226 140 330 140 470
             C 140 610 232 714 372 714
             C 512 714 604 610 604 470
             C 604 330 512 226 372 226
             Z
             M 372 344
             C 442 344 482 396 482 470
             C 482 544 442 596 372 596
             C 302 596 262 544 262 470
             C 262 396 302 344 372 344
             Z" fill-rule="evenodd"/>
    <path d="M 386 596 L 512 596 L 646 790 L 520 790 Z"/>
    <path d="M 640 470 L 742 470 L 812 668 L 882 470 L 984 470 L 866 790 L 758 790 Z"/>
  </g>
</svg>
